<svg width="600" height="600" xmlns="http://www.w3.org/2000/svg"><defs><clipPath id="a"><path d="m0,0h6e2v6e2H0V0z"/></clipPath></defs><path d="m0,0h6e2v6e2H0V0z" fill="#fff" fill-opacity="0" fill-rule="evenodd"/><g clip-path="url(#a)"><path d="m0,3e2C0,134.32,134.32,0,3e2,0s3e2,134.32,3e2,3e2S465.69,6e2,3e2,6e2,0,465.69,0,3e2z" fill="#cecece" fill-opacity="0.5" fill-rule="evenodd"/><path d="m2.66,3e2C2.66,135.79,135.79,2.66,3e2,2.66S597.34,135.79,597.34,3e2,464.21,597.34,3e2,597.34,2.66,464.21,2.66,3e2z" fill="none" fill-rule="evenodd" stroke="#c23531" stroke-width="4.2"/><path d="m31.08,175.05c5.54,50.47,36.84,143.4,117.68,111.34,101.05-40.08,173.96-77.62,161.17,34.35s65.88,204.85,0,206.76c-52.7,1.53-60.76,43.05-58.2,63.62" style="fill:none;stroke:#c23531;stroke-width:4.2;stroke-linecap:round;stroke-linejoin:round"/><path d="m347.13,386.09c0,42.09-34.12,76.22-76.21,76.22-42.1,0-76.21-34.12-76.21-76.22,0-42.08,34.11-76.2,76.21-76.2,42.09,0,76.21,34.12,76.21,76.2z" fill="#fff" fill-opacity="0.4"/><path d="m439.99,152.6S329.73,235.98,295.3,377.37l41.85,11.89-80.83,46.59-42.58-81.19,37.69,10.61s47.21-128.78,188.56-212.68z" fill="#c13531"/><path d="m292.29,199.48c0,36.41-29.52,65.91-65.92,65.91s-65.9-29.51-65.9-65.91,29.5-65.91,65.9-65.91,65.92,29.5,65.92,65.91z" fill="#fff" fill-opacity="0.4"/><path d="m437.73,151.33s-83.6,61.31-203.65,67.7l-.91,34.03-38.45-55.14,41-42.51-.86,34.99s97.29,19.98,202.88-39.07z" fill="#293c54"/></g></svg>
