<svg width="473" height="473" viewBox="0 0 473 473" fill="none" xmlns="http://www.w3.org/2000/svg">
    <circle opacity="0.5" cx="236.5" cy="236.5" r="236.5" fill="#CECECE"/>
    <circle cx="236.5" cy="236.5" r="234.4" stroke="#C23531" stroke-width="4.2"/>
    <mask id="path-3-inside-1_1_23" fill="white">
        <path fill-rule="evenodd" clip-rule="evenodd" d="M417.898 113C422.46 102.939 425 91.7661 425 80C425 35.8172 389.183 0 345 0C300.817 0 265 35.8172 265 80C265 91.7661 267.54 102.939 272.102 113H271.821L273.9 116.708C274.724 118.301 275.601 119.864 276.527 121.393L345 243.5L413.473 121.393C414.399 119.864 415.276 118.301 416.1 116.708L418.179 113H417.898Z"/>
    </mask>
    <path fill-rule="evenodd" clip-rule="evenodd" d="M417.898 113C422.46 102.939 425 91.7661 425 80C425 35.8172 389.183 0 345 0C300.817 0 265 35.8172 265 80C265 91.7661 267.54 102.939 272.102 113H271.821L273.9 116.708C274.724 118.301 275.601 119.864 276.527 121.393L345 243.5L413.473 121.393C414.399 119.864 415.276 118.301 416.1 116.708L418.179 113H417.898Z" fill="white"/>
    <path d="M417.898 113L414.073 111.266L411.382 117.2H417.898V113ZM272.102 113V117.2H278.618L275.927 111.266L272.102 113ZM271.821 113V108.8H264.65L268.158 115.054L271.821 113ZM273.9 116.708L277.63 114.778L277.598 114.715L277.563 114.654L273.9 116.708ZM276.527 121.393L280.191 119.339L280.156 119.277L280.119 119.217L276.527 121.393ZM345 243.5L341.337 245.554L345 252.087L348.663 245.554L345 243.5ZM413.473 121.393L409.881 119.217L409.844 119.277L409.809 119.339L413.473 121.393ZM416.1 116.708L412.437 114.653L412.402 114.715L412.37 114.778L416.1 116.708ZM418.179 113L421.842 115.054L425.35 108.8H418.179V113ZM420.8 80C420.8 91.1561 418.393 101.739 414.073 111.266L421.723 114.734C426.527 104.139 429.2 92.3761 429.2 80H420.8ZM345 4.2C386.863 4.2 420.8 38.1368 420.8 80H429.2C429.2 33.4976 391.502 -4.2 345 -4.2V4.2ZM269.2 80C269.2 38.1368 303.137 4.2 345 4.2V-4.2C298.498 -4.2 260.8 33.4976 260.8 80H269.2ZM275.927 111.266C271.607 101.739 269.2 91.1561 269.2 80H260.8C260.8 92.3761 263.473 104.139 268.277 114.734L275.927 111.266ZM272.102 108.8H271.821V117.2H272.102V108.8ZM268.158 115.054L270.237 118.762L277.563 114.654L275.484 110.946L268.158 115.054ZM280.119 119.217C279.242 117.768 278.411 116.288 277.63 114.778L270.17 118.638C271.038 120.315 271.96 121.96 272.935 123.569L280.119 119.217ZM272.864 123.447L341.337 245.554L348.663 241.446L280.191 119.339L272.864 123.447ZM348.663 245.554L417.136 123.447L409.809 119.339L341.337 241.446L348.663 245.554ZM412.37 114.778C411.589 116.288 410.758 117.768 409.881 119.217L417.065 123.569C418.04 121.96 418.963 120.315 419.83 118.637L412.37 114.778ZM419.763 118.762L421.842 115.054L414.516 110.946L412.437 114.653L419.763 118.762ZM418.179 108.8H417.898V117.2H418.179V108.8Z" fill="#293C54" mask="url(#path-3-inside-1_1_23)"/>
    <path d="M26.5 139C30.8333 178.667 55.3 251.7 118.5 226.5C197.5 195 254.5 165.5 244.5 253.5C234.5 341.5 296 414.5 244.5 416C203.3 417.2 197 449.833 199 466" stroke="#C23531" stroke-width="4.2"/>
    <circle cx="345" cy="80" r="28" fill="#293C54"/>
</svg>
