<?xml version="1.0" encoding="utf-8"?>
<!-- Generator: Adobe Illustrator 23.1.1, SVG Export Plug-In . SVG Version: 6.00 Build 0)  -->
<svg version="1.1" id="图层_1" xmlns="http://www.w3.org/2000/svg" xmlns:xlink="http://www.w3.org/1999/xlink" x="0px" y="0px"
	 width="23px" height="20px" viewBox="0 0 23 20" style="enable-background:new 0 0 23 20;" xml:space="preserve">
<style type="text/css">
	.st0{fill-rule:evenodd;clip-rule:evenodd;fill:#FFFFFF;}
</style>
<title>实例logo</title>
<desc>Created with Sketch.</desc>
<path class="st0" d="M21,0H6C4.9,0,4,0.9,4,2v2H2C0.9,4,0,4.9,0,6v12c0,1.1,0.9,2,2,2h15c1.1,0,2-0.9,2-2v-2h2c1.1,0,2-0.9,2-2V2
	C23,0.9,22.1,0,21,0z M17,18H2L2,6h0h15V18z M21,14h-2V6c0-1.1-0.9-2-2-2H6V2h15V14z M4,15v-3c0-0.6,0.4-1,1-1c0.6,0,1,0.4,1,1v3
	c0,0.6-0.4,1-1,1C4.4,16,4,15.6,4,15z M13,15v-3c0-0.6,0.4-1,1-1c0.6,0,1,0.4,1,1v3c0,0.6-0.4,1-1,1C13.4,16,13,15.6,13,15z M7,15V9
	c0-0.6,0.4-1,1-1c0.6,0,1,0.4,1,1v6c0,0.6-0.4,1-1,1C7.4,16,7,15.6,7,15z M10,15v-4c0-0.6,0.4-1,1-1c0.6,0,1,0.4,1,1v4
	c0,0.6-0.4,1-1,1C10.4,16,10,15.6,10,15z"/>
</svg>
