<?xml version="1.0" encoding="utf-8"?>
<!-- Generator: Adobe Illustrator 23.1.1, SVG Export Plug-In . SVG Version: 6.00 Build 0)  -->
<svg version="1.1" id="图层_1" xmlns="http://www.w3.org/2000/svg" xmlns:xlink="http://www.w3.org/1999/xlink" x="0px" y="0px"
	 viewBox="0 0 17 22" style="enable-background:new 0 0 17 22;" xml:space="preserve">
<style type="text/css">
	.st0{fill:#081642;}
</style>
<title>Group 5</title>
<desc>Created with Sketch.</desc>
<path class="st0" d="M-11.1,16.2c0,0.6-0.4,1-1,1h-4.6c-0.6,0-1-0.4-1-1s0.4-1,1-1h4.6C-11.5,15.2-11.1,15.7-11.1,16.2z M-8.4,7.5
	h-8.3c-0.6,0-1,0.4-1,1s0.4,1,1,1h8.3c0.6,0,1-0.4,1-1S-7.8,7.5-8.4,7.5z M-4.1,6v13c0,1.7-1.3,3-3,3h-11c-1.7,0-3-1.3-3-3V7.5V6V5
	V4V2c0-1.1,0.9-2,2-2h10c1.1,0,2,0.9,2,2v1C-5.4,3-4.1,4.3-4.1,6z M-19.1,3h1h9V2h-10V3z M-6.1,6c0-0.6-0.4-1-1-1h-11
	c-0.6,0-1,0.4-1,1v13c0,0.6,0.4,1,1,1h11c0.6,0,1-0.4,1-1V6z M-8.4,11.5h-8.3c-0.6,0-1,0.4-1,1c0,0.6,0.4,1,1,1h8.3c0.6,0,1-0.4,1-1
	C-7.4,11.9-7.8,11.5-8.4,11.5z"/>
</svg>
