<svg width="473" height="473" xmlns="http://www.w3.org/2000/svg"><defs><clipPath id="a"><path d="m0,0h473v473H0V0z"/></clipPath></defs><path d="m0,0h473v473H0V0z" fill="#fff" fill-opacity="0" fill-rule="evenodd"/><g clip-path="url(#a)"><path d="m0,236.5C0,105.89,105.89,0,236.5,0S473,105.89,473,236.5,367.12,473,236.5,473,0,367.12,0,236.5z" fill="#cecece" fill-opacity=".5" fill-rule="evenodd"/><path d="m2.1,236.5C2.1,107.04,107.04,2.1,236.5,2.1s234.4,104.94,234.4,234.4S365.96,470.9,236.5,470.9,2.1,365.96,2.1,236.5z" fill="none" fill-rule="evenodd" stroke="#c23531" stroke-width="4.2"/><path d="m24.5,138c4.37,39.79,29.04,113.05,92.77,87.77,79.66-31.6,137.14-61.19,127.06,27.08s51.93,161.49,0,163c-41.55,1.2-47.9,33.94-45.88,50.15" style="fill:none;stroke:#c23531;stroke-width:4.2;stroke-linecap:round;stroke-linejoin:round"/><path d="m273.66,304.37c0,33.18-26.9,60.08-60.08,60.08-33.19,0-60.08-26.9-60.08-60.08,0-33.17,26.89-60.07,60.08-60.07,33.18,0,60.08,26.9,60.08,60.07z" fill="#fff" fill-opacity=".4" fill-rule="evenodd"/><path d="m346.86,120.3s-86.92,65.73-114.06,177.2l33,9.38-63.72,36.73L168.5,279.6l29.71,8.36s37.21-101.52,148.65-167.66z" fill="#c13531" fill-rule="evenodd"/><path d="m230.42,157.26c0,28.7-23.27,51.96-51.97,51.96s-51.95-23.26-51.95-51.96,23.26-51.96,51.95-51.96c28.7,0,51.97,23.26,51.97,51.96z" fill="#fff" fill-opacity=".4" fill-rule="evenodd"/><path d="m345.07,119.3s-65.9,48.33-160.55,53.37l-.72,26.83-30.31-43.47,32.32-33.51-.68,27.58s76.7,15.75,159.93-30.8z" fill="#293c54" fill-rule="evenodd"/></g></svg>
